<svg xmlns="http://www.w3.org/2000/svg" viewBox="0 0 100 100" width="100" height="100">
  <!-- Fondo circular con gradiente -->
  <defs>
    <linearGradient id="bgGradient" x1="0%" y1="0%" x2="100%" y2="100%">
      <stop offset="0%" style="stop-color:#667eea;stop-opacity:1" />
      <stop offset="100%" style="stop-color:#764ba2;stop-opacity:1" />
    </linearGradient>
    <linearGradient id="diceGradient" x1="0%" y1="0%" x2="100%" y2="100%">
      <stop offset="0%" style="stop-color:#ffffff;stop-opacity:1" />
      <stop offset="100%" style="stop-color:#f0f0f0;stop-opacity:1" />
    </linearGradient>
  </defs>
  
  <!-- Círculo de fondo -->
  <circle cx="50" cy="50" r="45" fill="url(#bgGradient)" stroke="#4a5568" stroke-width="2"/>
  
  <!-- Dado principal -->
  <rect x="25" y="25" width="20" height="20" rx="3" fill="url(#diceGradient)" stroke="#2d3748" stroke-width="1"/>
  
  <!-- Puntos del dado (número 6) -->
  <circle cx="28" cy="28" r="1.5" fill="#2d3748"/>
  <circle cx="28" cy="32" r="1.5" fill="#2d3748"/>
  <circle cx="28" cy="36" r="1.5" fill="#2d3748"/>
  <circle cx="42" cy="28" r="1.5" fill="#2d3748"/>
  <circle cx="42" cy="32" r="1.5" fill="#2d3748"/>
  <circle cx="42" cy="36" r="1.5" fill="#2d3748"/>
  
  <!-- Dado secundario -->
  <rect x="55" y="55" width="15" height="15" rx="2" fill="url(#diceGradient)" stroke="#2d3748" stroke-width="1"/>
  
  <!-- Puntos del dado secundario (número 3) -->
  <circle cx="57" cy="57" r="1" fill="#2d3748"/>
  <circle cx="62" cy="62" r="1" fill="#2d3748"/>
  <circle cx="67" cy="67" r="1" fill="#2d3748"/>
  
  <!-- Estrellas decorativas -->
  <g fill="#ffd700">
    <polygon points="15,20 16,22 18,22 16.5,23.5 17,26 15,24.5 13,26 13.5,23.5 12,22 14,22" opacity="0.8"/>
    <polygon points="85,15 86,17 88,17 86.5,18.5 87,21 85,19.5 83,21 83.5,18.5 82,17 84,17" opacity="0.6"/>
    <polygon points="80,80 81,82 83,82 81.5,83.5 82,86 80,84.5 78,86 78.5,83.5 77,82 79,82" opacity="0.7"/>
  </g>
  
  <!-- Efecto de brillo -->
  <circle cx="35" cy="35" r="8" fill="white" opacity="0.1"/>
</svg> 